<?xml version="1.0" standalone="no"?>
<!DOCTYPE svg PUBLIC "-//W3C//DTD SVG 20010904//EN"
 "http://www.w3.org/TR/2001/REC-SVG-20010904/DTD/svg10.dtd">
<svg version="1.0" xmlns="http://www.w3.org/2000/svg"
 width="16.000000pt" height="16.000000pt" viewBox="0 0 16.000000 16.000000"
 preserveAspectRatio="xMidYMid meet">

<g transform="translate(0.000000,16.000000) scale(0.100000,-0.100000)"
fill="#000000" stroke="none">
<path d="M27 132 c-23 -25 -22 -85 1 -105 25 -23 85 -22 105 1 23 25 22 85 -1
105 -25 23 -85 22 -105 -1z m91 -14 c7 -7 12 -26 12 -43 0 -23 -7 -35 -25 -45
-36 -19 -75 8 -75 54 0 18 3 36 7 39 11 12 68 8 81 -5z"/>
</g>
</svg>
